<?xml version="1.0" encoding="utf-8"?>
<!-- Generator: Adobe Illustrator 25.2.3, SVG Export Plug-In . SVG Version: 6.00 Build 0)  -->
<svg version="1.1" id="Layer_1" xmlns="http://www.w3.org/2000/svg" xmlns:xlink="http://www.w3.org/1999/xlink" x="0px" y="0px"
	 viewBox="0 0 92.4 96.7" style="enable-background:new 0 0 92.4 96.7;" xml:space="preserve">
<style type="text/css">
	.st0{fill-rule:evenodd;clip-rule:evenodd;fill:#9C9797;}
	.st1{fill-rule:evenodd;clip-rule:evenodd;fill:#E79D9C;}
	.st2{fill-rule:evenodd;clip-rule:evenodd;fill:#D52D37;}
	.st3{fill-rule:evenodd;clip-rule:evenodd;fill:#DCD5D2;}
	.st4{fill-rule:evenodd;clip-rule:evenodd;fill:#F2DB8B;}
	.st5{fill-rule:evenodd;clip-rule:evenodd;fill:#F9EEBC;}
	.st6{fill-rule:evenodd;clip-rule:evenodd;fill:#DCBA5D;}
	.st7{fill-rule:evenodd;clip-rule:evenodd;fill:#FEFFFD;}
	.st8{fill-rule:evenodd;clip-rule:evenodd;fill:#B5B7B5;}
	.st9{fill-rule:evenodd;clip-rule:evenodd;fill:#F2F3F1;}
	.st10{fill-rule:evenodd;clip-rule:evenodd;fill:#E76D73;}
	.st11{fill-rule:evenodd;clip-rule:evenodd;fill:#7F7576;}
	.st12{fill-rule:evenodd;clip-rule:evenodd;fill:#A90D14;}
	.st13{fill-rule:evenodd;clip-rule:evenodd;fill:#6E4242;}
	.st14{stroke:#000000;stroke-width:0.5;}
	.st15{fill:#FF2841;stroke:#89211F;stroke-width:0.5;}
	.st16{fill:#EFEFEF;stroke:#EFEFEF;stroke-width:0.5;}
	.st17{fill:#FFFFFF;stroke:#FFFFFF;stroke-width:0.5;}
	.st18{fill:#00D5FF;stroke:#2867FF;stroke-width:0.5;}
	.st19{fill-rule:evenodd;clip-rule:evenodd;fill:#E2001A;}
	
		.st20{fill-rule:evenodd;clip-rule:evenodd;fill:#690D0E;stroke:#E2001A;stroke-width:3;stroke-linecap:round;stroke-linejoin:round;}
	.st21{fill-rule:evenodd;clip-rule:evenodd;fill:#E95F66;}
	.st22{fill-rule:evenodd;clip-rule:evenodd;fill:#FFFFFF;}
</style>
<g id="svg2">
	<g id="g10">
		<g id="g12">
			<path id="path14" class="st0" d="M85.9,20.4l-79-2.6l0.2-2.9c-0.1-0.6,0-1.2,0.2-1.8c0.5-1.3,1.4-2.4,2.7-3
				c1.8-0.7,3.7-1,5.6-0.8c1,0.1,2,0.2,2.9,0.4c0-0.4,0.1-0.7,0.3-1.1C19.3,8,20,7.4,20.9,7.1c2.1-0.6,4.2-0.8,6.4-0.8
				c0.2-0.6,0.5-1.2,1-1.7c1.5-1.3,3.3-2,5.2-2.1c3.2-0.5,6.5-0.6,9.8-0.3c0.4-0.5,1-0.9,1.5-1.2C46,0.3,47.4-0.1,48.8,0
				c2,0.2,4.4,1.8,7.3,4.8l1.8-0.6c1.4-0.3,2.9-0.3,4.4-0.1c2,0.3,3.5,1.7,4.6,4.2h6.8c1.8,0.2,3.2,1.4,4.2,3.8h1.5
				c1.2,0.1,2.4,0.5,3.5,1C84.7,14.1,85.7,16.6,85.9,20.4z"/>
			<path id="path16" class="st1" d="M51.7,62.6V33h1.2c-0.1,1.8,0,7,0.2,15.5C53.2,55,52.8,59.7,51.7,62.6z"/>
			<path id="path18" class="st1" d="M59.2,37.6c-0.1,2.1,0,4.2,0.2,6.3c0.1,2.7-0.4,4.4-1.5,5c0.1-2.1,0.1-4.2,0-6.3
				C57.7,39.8,58.1,38.2,59.2,37.6z"/>
			<path id="path20" class="st2" d="M56.9,72.7c-0.2,2.7-0.3,5.3-0.2,8c-0.8,0.8-1.5,1.8-2,2.9c-0.7,0.9-1.7,0.7-3-0.6V67.1
				c0.5,0,1.3,0,2.4-0.2c0.8-0.1,1.2-0.5,1.3-1.1C56.6,67,57.1,69.3,56.9,72.7z"/>
			<path id="path22" class="st3" d="M57.9,80.7c1.5-0.7,2.3-2.2,2.5-4.6c0.8,0,1.3,0.6,1.5,1.7s0.5,1.7,1,1.8v3.3l-3.7,3.5
				c-1.1,0.1-1.6-0.6-1.5-2.1C57.9,83.1,58,81.9,57.9,80.7z"/>
			<path id="path24" class="st0" d="M22.8,11.3c-1.4,0.2-2.8,0.3-4.2,0.1c-0.7-1.6,0-2.7,2.2-3.3s3.7-0.3,4.2,1.1
				C24.9,10.3,24.1,11,22.8,11.3z"/>
			<path id="path26" class="st4" d="M73.9,11.3c-0.2,1.2,0,2.5,0.5,3.6c-0.1,0.6-0.4,1.1-0.8,1.5c-0.5,0.5-0.6,1.2-0.3,1.8
				c-0.7-0.3-1.4-0.6-2.2-0.8c-0.7-0.3-1.2,0-1.7,0.8c-0.7-0.2-1.4-0.6-1.9-1.2c-0.5-0.5-1.2-0.9-2-1c0.1-0.6,0.7-1,1.3-0.9
				c0,0,0,0,0,0c0.8,0,1.2,0.3,1.3,0.9c0.4-0.1,0.8-0.5,1.2-1.2s0.8-1.1,1.3-1.1c-0.8-0.5-1.5-1.1-2-1.8c-0.3-0.6,0.3-1.1,2-1.6
				c0.8,0.2,1.2-0.1,1.2-1.1C73.4,9.8,74,10.5,73.9,11.3z"/>
			<path id="path28" class="st4" d="M41.4,5.7c1.2,1.1,1.5,2.7,0.8,4.7c-0.6,1.6-1.2,3.1-2,4.5c-1.6-0.2-2.2-0.8-1.9-1.8
				s0.1-1.6-0.7-1.6V9.2C35.3,9,34,9.4,33.8,10.3c-2.5,1.6-5.4,2.6-8.3,2.8c-2.3,0.1-4.6,0.3-6.9,0.6h-1.3v-2.2h1.3
				c1.4,0.1,2.8,0.1,4.2-0.1c1.3-0.3,2.1-1,2.2-2.1c0.7-1.4,3-2.2,6.9-2.3c4.5-0.1,7.2-0.5,8.2-1.2H41.4z"/>
			<path id="path30" class="st4" d="M61.8,9.2c-0.3,1.1,0.1,2.1,1.3,2.9c1.1,0.5,1.6,1.7,1.2,2.9c-1.5,0.1-2.4-0.4-2.9-1.4
				c-0.5-1.4-0.8-2.5-1-3.3c-1.5,0.6-3,1.2-4.5,1.6c-1.9,0.3-3.8,0.1-5.6-0.4c0.9,1.3,1.9,2.4,3,3.5c0.8,1.2,0.2,2.3-1.7,3.3
				c0.3,1,1.1,1,2.2,0c1.3-1.4,2.7-1.8,4-1.1c0.6,1.2,0.2,2.6-1,3.2c-0.1,0-0.1,0.1-0.2,0.1c-1.1,0.6-1.1,1.4,0,2.3
				c1.6,0.3,3.3-0.7,3.8-2.3c0.6,0,1.1,0.5,1.7,1.4c0.4,0.8,1.3,1.2,2.2,0.9c-0.1,0.6-0.4,1.2-0.7,1.8c-0.2,0.5,0,1.1,0.7,1.7
				c0.7-0.1,1.2-0.6,1.5-1.5c0.2-0.7,0.6-1.4,1-2c0.7,0,1.4,0.5,2.2,1.5c0.7,0.8,1.9,1.1,2.9,0.8c-0.1,0.5-0.3,0.9-0.7,1.1
				c-0.3,0.3-0.5,0.8-0.5,1.2c-2.1,0.2-4.2,0.5-6.3,1c-2,0.7-3.8,1.9-5.2,3.5c-0.1-0.8-1-0.9-2.7-0.3c-1.2,0.6-2.4,1.1-3.7,1.5h-2.5
				c-0.2-1,0.4-2,1.4-2.3c-0.8-0.5-1.6-1.2-2.2-2c-0.7-1.1-0.8-2.5-0.3-3.8c-1.3-0.5-2.7,0-3.4,1.2c-0.4,0.5-0.5,0.9-0.3,1.1
				c-1.4,0.3-2.6,1.3-3.3,2.6c-1.3,2.2-0.7,3.7,1.9,4.4c-0.5,0.6-1.1,1-1.9,1.2c-0.7,0.5-1,1.3-0.8,2.1c-0.7,0.2-1.2,0.7-1.7,1.2
				c-0.6,0.5-1.2,0.9-2,1c-1.2-1-2.1-1.8-2.7-2.3c-0.9-0.9-1.3-2.1-1.2-3.3c-0.7,0.7-1.6,1-2.5,1.1c-0.9,0.1-1.5,0.9-1.3,1.8
				c0,0.2,0.1,0.3,0.1,0.4c-1.6-0.2-2.7-1.7-2.5-3.3V33c-0.7-0.5-1.2-1.4-1.4-2.3c1.1-0.3,1.9,0,2.2,0.9c0.2,0.8,0.3,1.7,0.3,2.6
				c1.5-1.4,3.6-2,5.6-1.7c1.9,0.2,3-0.4,3.4-1.8c1.3,0.3,1.7,0.9,1,1.8c-1,1.2-1.3,2.1-1,2.7c2.1-0.3,3.2-1.1,3.2-2.3
				c-0.4-1.5-0.6-3-0.7-4.5c-0.8,0.6-1.4,0.8-1.9,0.6s-0.8-0.8-0.7-1.8h2.5c0.2-1.1-0.3-2.2-1.2-2.9c-0.1-0.1-1-0.7-2.7-1.7
				c0.2-0.7,0.7-1.3,1.3-1.6c0.5-0.4,0.9-1,1.2-1.7c1.6,0.8,4,1,7.3,0.8c1.4-0.2,2.8-0.1,4.2,0.4c-1.1-1.2-1.5-2.8-1.1-4.3
				c0.6-2.6,0.1-4.6-1.3-6c-1.1,0.3-1.5,1.1-1.2,2.3c-1.5-0.5-2.2-1.2-2-2.1c0.1-1.2,0-2.4-0.5-3.5c1.5,1.6,3,2.2,4.6,1.8
				c1-0.3,2.9-0.9,5.6-1.8c0,0.6-0.3,1.2-0.8,1.6c0.7-0.3,1.5-0.2,2.1,0.1c1.2,0.6,2,0.4,2.4-0.8c0.8,0,1.7,0,2.5,0.2
				C61.2,8.3,61.7,8.6,61.8,9.2z"/>
			<path id="path32" class="st5" d="M57.9,8c-0.3,1.1-1.1,1.4-2.4,0.8c-0.6-0.4-1.4-0.5-2.1-0.2c0.4-0.4,0.7-1,0.8-1.7
				c-2.7,0.9-4.6,1.5-5.6,1.8c-1.6,0.4-3.1-0.2-4.6-1.8c0.5,1.1,0.7,2.3,0.5,3.5c-0.1,0.9,0.5,1.6,2,2.1c-0.3-1.2,0-2,1.2-2.3
				c1.5,1.4,1.9,3.4,1.3,6c-0.4,1.5,0,3.1,1.1,4.3c-1.3-0.5-2.7-0.6-4.1-0.4c-3.3,0.3-5.7,0-7.3-0.8c-0.2,0.7-0.6,1.3-1.2,1.7
				c-0.7,0.3-1.1,0.9-1.3,1.7c1.7,1,2.6,1.5,2.7,1.6c0.9,0.7,1.3,1.8,1.2,2.9h-2.5c0-0.4-0.3-0.7-0.8-0.9c-0.6,0-1.1,0-1.7-0.1v-4.5
				h1.2c-0.1-0.6-1-1.2-2.5-1.8c-1.2-0.4-1.6-1.3-1.2-2.7c-4.5,2.6-7.5,5.2-9,7.8c-1.2-0.8-2.2-1.4-3-1.8c-1.4-0.7-3-0.9-4.5-0.5
				c1,1.1,2.3,1.8,3.7,2.3c0,0.5-0.4,0.9-0.8,0.9c0,0,0,0,0,0c-0.6,0.1-1.1,0.2-1.7,0.3c0-0.4-0.3-0.7-0.8-0.9
				c-0.6-0.1-1.1-0.2-1.7-0.3c0.8-2.4,0.8-4.1,0-5.1c-1.4-1.2-2.6-2.5-3.7-3.9c0-1.1,0.9-1.7,2.7-1.8c2-0.2,3.2-1.1,3.6-2.7v2.3
				c-0.8,1-1.2,2.2-1.2,3.5c1.6,3,2.9,3.7,4,2.1c1.1-1.6,0.5-3.5-1.5-5.6c2.3-0.3,4.6-0.5,6.9-0.6c3-0.2,5.8-1.2,8.3-2.9
				c2.2,0.6,2.7,1.1,1.3,1.4c-1.3,0.2-2.6,0.5-3.9,0.9c0.2,1.3,1.5,1.8,3.7,1.4c2.1-0.5,3-1.3,2.7-2.4c0.8,0.1,1,0.6,0.7,1.6
				c-0.3,1,0.3,1.6,1.9,1.8c0.8-1.5,1.4-3,2-4.5c0.7-2,0.4-3.6-0.8-4.7h-1.1V3.5c5.8,0.9,10.5,0.9,14,0c0.8,0.1,1.3,1,1.5,2.6
				S56.7,8.2,57.9,8z"/>
			<path id="path34" class="st5" d="M70.7,10.3c-1.7,0.5-2.3,1.1-2,1.6c0.5,0.7,1.2,1.4,2,1.8c-0.6,0-1,0.4-1.3,1s-0.7,1.1-1.2,1.2
				c-0.1-0.6-0.6-0.9-1.3-0.9c-0.6-0.1-1.2,0.2-1.3,0.8c0,0,0,0,0,0.1c0.8,0.1,1.5,0.5,2,1.1c0.5,0.6,1.1,1,1.9,1.2
				c0.3,0.9,1.2,1.3,2.5,1.2c-0.8,1.5-2.3,2.1-4.6,1.7c-1.8-0.4-2.8,0.1-3,1.7c-0.9,0.3-1.8-0.1-2.2-0.9c-0.6-0.9-1.1-1.4-1.7-1.4
				c-0.5,1.6-2.1,2.5-3.7,2.3c-1.1-0.9-1.1-1.7,0-2.3c1.2-0.5,1.8-1.9,1.3-3.1c0-0.1-0.1-0.1-0.1-0.2c-1.3-0.7-2.7-0.3-4,1.1
				c-1.1,1-1.9,1-2.2,0c1.9-1,2.5-2.1,1.7-3.3c-1.1-1-2.1-2.2-3-3.5c1.8,0.6,3.7,0.7,5.6,0.4c1.5-0.5,3-1,4.5-1.6
				c0.2,0.8,0.6,1.9,1,3.3c0.4,1,1.4,1.5,2.9,1.4c0.4-1.1-0.1-2.3-1.2-2.8c-1.2-0.8-1.7-1.8-1.3-2.9c1,0.7,2.5,0.8,4.6,0.3
				S69.7,9.3,70.7,10.3z"/>
			<path id="path36" class="st6" d="M83.4,18.2v3.5c-0.9,0.1-1.7,0.6-2.2,1.4c-0.7,0.9-1.8,1.3-2.9,0.9c0-1.9-0.7-2.3-2.2-1.2
				c-2.1,1.6-3.5,2.4-4.2,2.3c-1,0.4-2.2,0.1-2.9-0.8c-0.8-1-1.5-1.5-2.2-1.5c-0.4,0.6-0.8,1.3-1,2c-0.3,0.9-0.8,1.4-1.5,1.5
				c-0.7-0.6-0.9-1.2-0.7-1.7c0.3-0.6,0.5-1.2,0.7-1.8c0.2-1.5,1.2-2.1,3-1.7c2.2,0.4,3.8-0.1,4.6-1.7c-1.3,0.1-2.2-0.3-2.5-1.2
				c0.4-0.8,1-1,1.7-0.8c0.7,0.2,1.5,0.5,2.2,0.8c-0.2-0.6-0.1-1.3,0.3-1.8c0.5-0.4,0.8-1,0.9-1.6c0.7-0.2,1.1,0.2,1.3,1.1
				c-1.2,1.3-2.2,2.7-3.2,4.1c-0.9,1.4-2,2.7-3.2,3.9c3.3-0.1,4.9-1.6,5.1-4.5c1.1,0.8,2.5,1.1,3.9,1.1c0.1-0.8-0.2-1.6-0.7-2.3
				C77.2,17.6,77,16.8,77,16c1.8-0.8,3.1-0.9,3.9-0.3C81.8,16.4,82.7,17.3,83.4,18.2z"/>
			<path id="path38" class="st6" d="M14.7,25c-1.7-2-3-4.3-3.7-6.8c-0.6,0.5-1.4,0.8-2.2,0.9c-1,0.3-1.6,0.8-1.7,1.4
				c-1.2-0.1-1.7-1-1.3-2.7c0.2-1.1,0.6-2.1,1.3-2.9C8.3,15.6,9.6,16,11,16c1.1,1.4,2.4,2.7,3.7,3.9C15.5,20.9,15.5,22.6,14.7,25z"
				/>
			<path id="path40" class="st7" d="M18.6,13.7c2,2.1,2.5,4,1.5,5.6c-1,1.6-2.5,0.9-4-2.1c0-1.2,0.4-2.5,1.2-3.5L18.6,13.7z"/>
			<path id="path42" class="st0" d="M3.7,30.3c2,6,3.1,10.7,3.4,14c1.1-0.2,1.6-1,1.4-2.3c0.7,0.1,1.2,0.7,1.2,1.4v2.1
				c-1.5,0.6-1.6,2.1-0.5,4.5s0.9,4-0.7,4.5c-0.2-2.7-2.1-9.5-5.7-20.4C-0.1,25.9-0.8,19.8,0.8,16C1.2,20.9,2.1,25.7,3.7,30.3z"/>
			<path id="path44" class="st4" d="M77,16c0,0.8,0.2,1.6,0.7,2.3c0.5,0.6,0.7,1.4,0.7,2.3c-1.4,0.1-2.7-0.3-3.9-1.1
				c-0.1,2.9-1.8,4.4-5.1,4.5c1.2-1.2,2.3-2.5,3.2-3.9c1-1.4,2-2.8,3.2-4.1L77,16z"/>
			<path id="path46" class="st4" d="M30,21.7c-1.8,1.7-3.5,3.6-5.1,5.6c-1.2-0.7-2.5-1.1-3.9-1c0.1-1-0.1-1.6-0.5-1.8
				c-0.4-0.2-0.7-0.1-0.9,0.6c-1.4-0.4-2.7-1.2-3.7-2.3c1.5-0.4,3.2-0.3,4.6,0.5c0.8,0.4,1.8,1,3,1.8c1.5-2.6,4.4-5.2,8.9-7.8
				c-0.5,1.4-0.1,2.3,1.2,2.7c1.6,0.6,2.4,1.2,2.5,1.8h-1.1c-1.2,1.3-1.9,2.9-2,4.7c0.1,1.8,1.2,2.9,3.2,3.2
				c-1.9,1.7-3.7,1.5-5.2-0.6C29.6,26.9,29.2,24.2,30,21.7z"/>
			<path id="path48" class="st8" d="M7.1,14.9c-0.7,0.8-1.2,1.8-1.3,2.9c-0.3,1.7,0.1,2.6,1.3,2.7c0.1-0.6,0.7-1.1,1.7-1.4
				c0.8-0.1,1.6-0.4,2.2-0.9c0.7,2.5,2,4.8,3.7,6.8c0.6,0.2,1.1,0.3,1.7,0.3c0.6,0.2,0.8,0.5,0.8,0.9c-2.9,1.9-3,8.2-0.2,19
				c3.6,14.1,5.4,22.5,5.4,25.2c-0.1,1.8-0.1,3.5,0,5.3c-0.2,1.7-1.1,1.9-2.7,0.5c-2.5-12.3-4.4-21.5-5.7-27.6
				c-2.4-11-4.7-19.9-6.9-26.8C4.5,23.2,4.2,26.6,6.2,32c2.1,5.7,2.9,9.1,2.2,10.1c0.2,1.3-0.2,2.1-1.4,2.3c-0.2-3.3-1.3-8-3.4-14
				C2.1,25.7,1.2,20.9,0.8,16c0.4,0,0.8-0.3,0.8-0.8c0.1-0.5,0.2-1,0.3-1.5c1.1,0.1,2.1,0.1,3.2,0C6.4,13.8,7,14.2,7.1,14.9z"/>
			<path id="path50" class="st8" d="M9.6,45.5c1.4,4.6,4.4,16.3,9,35.1c-0.2,1.4-0.8,1.5-1.9,0.3c-1-1.2-1.2-2.5-0.7-3.6
				c0-0.3-0.3-0.1-0.8,0.4s-1,0.8-1,0.6v-1.7c0.8-0.8,0.6-0.9-0.5-0.4c-0.8,0.4-0.9,0.3-0.2-0.1c-0.4-3.7-1.2-7.4-2.4-11
				c-1.3-3.4-2.2-7-2.7-10.6c1.6-0.5,1.8-2,0.7-4.5C8,47.6,8.1,46.1,9.6,45.5z"/>
			<path id="path52" class="st0" d="M22.5,75.7c-0.1-1.8-0.1-3.5,0-5.3c1.3,2.7,2.6,8,3.7,16c-1.9,0.5-3-0.2-3.4-2
				c-0.5-2.3-1-3.6-1.7-3.8c0.1-0.8-0.2-1.6-0.7-2.2c-0.4-0.7-0.7-1.5-0.7-2.3C21.3,77.6,22.2,77.4,22.5,75.7z"/>
			<path id="path54" class="st3" d="M21.1,31.8c-0.3-1.1-0.9-2.1-1.6-2.9c-0.8-0.8-1.5-1.8-2.2-2.7c0.6-0.1,1.1-0.2,1.7-0.3
				c0.6-0.1,0.8-0.4,0.8-0.9c0.1-0.7,0.4-0.9,0.8-0.6c0.5,0.3,0.6,0.8,0.5,1.8c-0.9,1.9-0.4,3,1.5,3.2c2.2,0.3,3.4,0.8,3.5,1.4
				c0.1,0.9,0.6,1.7,1.3,2.3c-1.3-0.9-2.4-1.6-3-2C23.3,30.5,21.9,30.9,21.1,31.8z"/>
			<path id="path56" class="st9" d="M85.9,22.8c-1.8,5.7-3.9,14.8-6.4,27.3c-0.9,7.3-2.1,12.6-3.7,15.8c-0.6,0.1-1.1,0.2-1.7,0.3
				c-0.5,0-0.9,0.4-0.8,0.9c0,0,0,0,0,0c-0.8-0.1-1.2-0.7-1.3-1.7c0.1-1,0.1-1.9,0-2.9v-3.5c3-12.7,4.7-23.3,5.1-31.8
				c0.6-0.1,1.1-0.6,1.2-1.2c0.1-0.7,0.2-1.4,0.2-2.1c1,0.4,2.2,0,2.9-0.9c0.5-0.7,1.3-1.2,2.2-1.4v-3.5c1.3-1.9,2.9-2.3,4.6-1
				s2.7,1.5,3.1,1c1.3,0.8,1.7,2.4,1.2,4.8c-0.3,1.7-1.2,3.1-2.5,4.2v-5.6c-0.8,0-1.6,0-2.4,0.2C86.4,21.9,86,22.2,85.9,22.8z"/>
			<path id="path58" class="st2" d="M75.8,65.9c1.6-3.2,2.8-8.5,3.7-15.8c3.1-2.2,5.6-6.5,7.3-12.8c1.7-6.6,1.4-11.5-0.8-14.5
				c0.1-0.6,0.6-0.9,1.3-0.9c0.8-0.1,1.6-0.2,2.3-0.1v5.6c-1.1,4.3-3.1,13.1-6.1,26.4c-2.5,11.1-4.7,19.7-6.6,25.9
				c-0.7-0.2-1-1.2-1-3s-0.6-2.6-1.5-2.7c-0.2-1.4,0.1-2.8,0.8-3.9C76,68.7,76.1,67.3,75.8,65.9z"/>
			<path id="path60" class="st10" d="M85.9,22.8c2.3,3,2.5,7.8,0.9,14.5c-1.7,6.3-4.1,10.6-7.3,12.9C82,37.6,84.1,28.5,85.9,22.8z"
				/>
			<path id="path62" class="st5" d="M70.1,28.8c0.3-0.4,0.6-1,0.7-1.5c0-0.4,0.2-0.9,0.5-1.2c0.4-0.4,0.7-0.8,0.7-1.1
				c0.7,0.1,2.1-0.6,4.2-2.3c1.5-1.1,2.2-0.7,2.2,1.2c0,0.7-0.1,1.4-0.2,2.1c-0.1,0.6-0.5,1.1-1.2,1.2V25c-1.5,0.1-2.8,0.6-3.9,1.6
				c-0.9,0.9-1.7,1.9-2.4,2.9C70.1,29.4,69.8,29.1,70.1,28.8z"/>
			<path id="path64" class="st9" d="M59.2,31.8c1.5-1.5,3.2-2.7,5.2-3.5c2.1-0.5,4.1-0.9,6.2-1.1c-0.1,0.6-0.3,1.1-0.7,1.5
				c-0.2,0.3,0,0.6,0.7,0.8c-2.3,9.7-3.6,19.6-3.8,29.6c-0.1,1.1-0.5,2.2-1,3.2c-0.6,1.1-0.7,2.4-0.4,3.6c-0.1,0.7-0.4,3.1-0.8,7.2
				c-0.2,3-0.8,5.2-1.7,6.5c-0.6-0.1-0.9-0.7-1-1.8s-0.7-1.7-1.5-1.7c-0.2,2.3-1.1,3.8-2.5,4.5V48.9c1.1-0.6,1.6-2.3,1.5-5
				c-0.2-2.1-0.3-4.2-0.2-6.3v-2.8c-0.1-1-0.6-1.5-1.3-1.7C57.8,32.4,58.2,32,59.2,31.8z"/>
			<path id="path66" class="st2" d="M66.8,59.1c1.1,0.5,2.2,0.1,3.4-1.2c0.8-1,1.3-1,1.7,0.2c-0.6,0.1-1.2,0.8-1.8,2.3
				c-0.6,1.1-1.6,1.5-3.2,1c0.8,0.7,1.3,1.7,1.2,2.8c-0.2,1.1-1.1,1.7-2.5,1.8c-0.3-1.2-0.2-2.5,0.3-3.6
				C66.4,61.3,66.7,60.2,66.8,59.1z"/>
			<path id="path68" class="st10" d="M70.7,29.6c0.7-1,1.5-2,2.4-2.9c1.1-1,2.4-1.6,3.9-1.7v2.3c-0.4,8.5-2,19.2-5.1,31.8v-1.1
				c-0.3-1.1-0.9-1.2-1.7-0.2c-1.1,1.3-2.2,1.7-3.4,1.2C67.1,49.2,68.4,39.3,70.7,29.6z"/>
			<path id="path70" class="st8" d="M27.5,34.2c-1.1,0.7-1.3,2.3-0.5,4.7c0.9,2.9,1.1,5.1,0.5,6.6c0,1.3-0.2,2.7-0.7,3.9
				c-0.6,1.2-1.9,1.9-3.2,1.7c0-2.4-0.8-8.8-2.5-19.3c0.9-0.9,2.2-1.2,3.3-0.7c0.7,0.4,1.7,1,3,2L27.5,34.2z"/>
			<path id="path72" class="st10" d="M59.2,37.6c-1.1,0.6-1.6,2.3-1.3,5c0.1,2.1,0.1,4.2,0,6.3v31.8h-1.2c-0.1-2.7,0-5.3,0.2-8
				c0.2-3.4-0.3-5.7-1.5-6.8c-0.1,0.6-0.6,1-1.3,1.1c-1,0.1-1.8,0.2-2.4,0.2v-4.5c1.1-2.9,1.5-7.6,1.3-14C52.8,40,52.7,34.9,52.8,33
				c1.3-0.4,2.5-0.9,3.7-1.5c1.7-0.6,2.6-0.5,2.7,0.3c-1,0.2-1.5,0.6-1.3,1.2c0.8,0.1,1.2,0.7,1.3,1.7L59.2,37.6z"/>
			<path id="path74" class="st9" d="M44.1,34.2c1.2,0.8,2,2,2.5,3.3c1.1-0.1,2-0.8,2.4-1.8c0.4-0.9,0.8-1.8,1.3-2.7h1.3v39.6
				c-1.1-0.1-1.6,0.7-1.5,2.3c0.2,1.1,0.2,2.3,0.2,3.5c-0.6,0-1-0.6-1-1.2c0,0,0,0,0,0c0-0.8,0-1.5-0.2-2.3C48.5,75,48,75.6,48,76.3
				c-0.1,0.7-0.2,1.4-0.2,2.1c-1.1,0-1.5-1.3-1.2-3.9s-0.1-4-1.3-4.1v-2.3c0-11.6-0.8-21.4-2.5-29.4c0.1-0.6-0.3-1-1.3-1.2
				c-0.2-0.8,0.2-1.6,0.8-2.1C42.9,35.2,43.6,34.8,44.1,34.2z"/>
			<path id="path76" class="st6" d="M49.5,28.8c0.6,0.8,1.4,1.5,2.2,2c-1,0.3-1.6,1.3-1.4,2.3c0,0,0,0,0,0c-0.5,0.9-1,1.8-1.3,2.7
				c-0.4,1-1.3,1.7-2.4,1.8c-0.5-1.3-1.4-2.5-2.5-3.3c-2.6-0.8-3.2-2.2-1.9-4.4c0.7-1.3,1.9-2.2,3.3-2.6c-0.3-0.2-0.2-0.5,0.2-1
				c0.7-1.2,2.1-1.7,3.4-1.2C48.6,26.3,48.8,27.7,49.5,28.8z"/>
			<path id="path78" class="st2" d="M37.6,39.8c0.7-0.1,1.4-0.5,2-1c0.4-0.5,1-1,1.7-1.2c1,0.2,1.5,0.6,1.3,1.2
				c-3.5,1.9-4.9,7.5-4.2,16.9s3,13.4,6.8,12.4v2.3c-0.2,6,0.2,10.2,1.3,12.5v5.7c-2.7,0.2-4.5,1-5.2,2.3
				c-2.4-16.2-3.6-32.5-3.7-48.8L37.6,39.8L37.6,39.8z"/>
			<path id="path80" class="st0" d="M31.2,35.3c0.9,0,1.8-0.4,2.5-1.1c-0.1,1.2,0.3,2.4,1.2,3.3c0.6,0.5,1.5,1.2,2.7,2.2v2.3
				c-1.2,0.8-2,2.8-2.2,6c-0.2,3.4-0.8,5.6-1.7,6.5c-1-1.4-1.4-4.6-1.2-9.6C32.8,40,32.4,36.8,31.2,35.3z"/>
			<path id="path82" class="st11" d="M30.9,76.9c-0.7-1.4-0.6-2.1,0.3-2c1.8,5.1,2.7,10.6,2.5,16c-0.9,0.1-1.7-0.1-2.4-0.8
				C31,89.6,30.6,89,30,88.6c-0.2-1.6-0.5-3.3-1-4.8c-0.5-1.8-0.7-3.6-0.3-5.4C30.8,78.8,31.6,78.3,30.9,76.9z"/>
			<path id="path84" class="st3" d="M71.9,62.6c0.1,1,0.1,1.9,0,2.9c0.1,1,0.6,1.6,1.3,1.7c0-0.5,0.3-0.8,0.8-0.9
				c0.6-0.2,1.1-0.3,1.7-0.3c0.3,1.4,0.1,2.8-0.5,4.1c-0.7,1.2-1,2.6-0.8,3.9c-0.4,1.6-0.8,3.2-1.4,4.8c-0.4,2.2,0,3.6,1.4,4.2
				c-0.2,1.1-1.2,1.9-3,2.4c-2,0.4-3.6,0.8-4.6,1.1c1.5-2.1,2.4-6,2.9-11.6C70.3,68.7,71,64.6,71.9,62.6z"/>
			<path id="path86" class="st12" d="M71.9,62.6c-0.9,2-1.6,6.1-2.2,12.2c-0.5,5.6-1.4,9.5-2.9,11.6c-0.7,0.6-1.6,1-2.5,1.1
				c-0.8-0.1-1.2-0.7-1.3-1.7c0.1-1,0.1-1.9,0-2.9v-3.3c0.9-1.3,1.5-3.5,1.7-6.5c0.4-4.1,0.7-6.5,0.8-7.2c1.5-0.1,2.3-0.7,2.5-1.8
				c0.1-1-0.4-2.1-1.2-2.7c1.6,0.4,2.6,0,3.2-1c0.7-1.4,1.3-2.2,1.9-2.3L71.9,62.6L71.9,62.6z"/>
			<path id="path88" class="st12" d="M74.4,82.9c-1.4-0.6-1.8-2-1.4-4.2c0.5-1.6,1-3.2,1.4-4.8c0.9,0.1,1.4,1,1.5,2.7s0.3,2.8,1,3
				C77.5,81.9,76.7,83,74.4,82.9z"/>
			<path id="path90" class="st0" d="M57.7,84.3c-0.1,1.5,0.4,2.2,1.5,2.1l3.7-3.5c0.1,1,0.1,1.9,0,2.9c0.1,1,0.6,1.6,1.3,1.7
				c0.1,0.6-0.3,1-1.3,1.2c-1.3-0.1-2.2,0.2-2.5,1.1c-0.7-0.1-1.4,0.1-2,0.4c-0.5,0.4-1.1,0.6-1.7,0.8V80.7h1.2
				C58,81.9,57.9,83.1,57.7,84.3z"/>
			<path id="path92" class="st11" d="M16,77.4l2.7,3.3h-0.2c-0.2,1.4-0.8,1.5-1.8,0.3C15.7,79.8,15.4,78.5,16,77.4z"/>
			<path id="path94" class="st7" d="M37.6,11.5c0.3,1.1-0.6,1.9-2.7,2.4c-2.2,0.4-3.5,0-3.7-1.4c1.3-0.4,2.6-0.7,3.9-0.9
				c1.3-0.3,0.9-0.8-1.3-1.4C34,9.4,35.3,9,37.6,9.2L37.6,11.5z"/>
			<path id="path96" class="st12" d="M26.2,64.9c0.5,4.6,1.3,9.1,2.5,13.6c-0.3,1.8-0.2,3.7,0.3,5.4c0.5,1.6,0.8,3.2,1,4.8
				c-0.9,0.1-1.7-0.1-2.4-0.8c-0.4-0.6-0.9-1.1-1.5-1.5c-1.1-8-2.4-13.3-3.7-16c0-2.7-1.8-11.1-5.4-25.2c-2.8-10.8-2.8-17.1,0.2-19
				c0.7,1,1.4,1.9,2.2,2.7c0.8,0.8,1.4,1.8,1.7,2.9c1.7,10.5,2.5,16.9,2.5,19.3C24.8,55.6,25.6,60.2,26.2,64.9z"/>
			<path id="path98" class="st6" d="M35.1,26.2c0.6,0.1,1.1,0.2,1.7,0.1c0.6,0.2,0.8,0.5,0.8,0.9c-0.1,1,0.1,1.6,0.7,1.8
				s1.1,0,1.9-0.6c0,1.5,0.3,3.1,0.7,4.5c0,1.2-1.1,2-3.2,2.3c-0.3-0.6,0-1.5,1-2.7c0.7-0.9,0.3-1.5-1-1.8c-0.3,1.4-1.5,2-3.4,1.8
				c-2-0.3-4.1,0.3-5.6,1.7c0-0.9-0.1-1.7-0.3-2.6c-0.3-0.9-1.1-1.2-2.2-0.9c-0.1-0.6-1.3-1.1-3.5-1.4c-1.9-0.2-2.4-1.3-1.5-3.2
				c1.4-0.1,2.7,0.3,3.9,1c1.5-2,3.2-3.9,5.1-5.6c-0.8,2.4-0.5,5.1,1,7.2c1.6,2.1,3.3,2.3,5.2,0.6c-2-0.3-3.1-1.4-3.2-3.2
				c0.1-1.8,0.8-3.4,2-4.7L35.1,26.2L35.1,26.2z"/>
			<path id="path100" class="st12" d="M31.2,35.3c1.1,1.5,1.6,4.7,1.3,9.6s0.2,8.2,1.2,9.6c0,6.6,0.5,13.2,1.3,19.8
				c0.9,6.6,1.3,13.3,1.2,19.9h-1.2c0-0.7,0-1.4-0.2-2.1c0-0.6-0.5-1.1-1.2-1.2c0.1-5.4-0.7-10.9-2.5-16c0.5-3,0.2-7.7-0.8-14
				c-1.3-7.2-2.3-12.4-2.9-15.4c0.5-1.5,0.4-3.7-0.5-6.6c-0.8-2.4-0.6-4,0.5-4.7c-0.1,1.7,0.7,2.8,2.5,3.3c-0.4-0.8-0.1-1.7,0.7-2.1
				C30.9,35.4,31.1,35.3,31.2,35.3z"/>
			<path id="path102" class="st10" d="M42.7,38.8c1.7,8,2.5,17.8,2.5,29.4c-3.9,1-6.1-3.1-6.8-12.5C37.8,46.3,39.2,40.7,42.7,38.8z"
				/>
			<path id="path104" class="st0" d="M23.6,51.1c1.3,0.2,2.6-0.5,3.2-1.7c0.4-1.3,0.7-2.6,0.7-3.9c0.5,3,1.5,8.1,2.9,15.4
				c1,6.3,1.3,11,0.8,14c-0.9-0.1-1,0.6-0.3,2s-0.1,1.9-2.2,1.5c-1.2-4.4-2.1-9-2.5-13.6C25.6,60.2,24.8,55.6,23.6,51.1z"/>
			<path id="path106" class="st11" d="M37.6,42.1c0.1,16.3,1.4,32.6,3.7,48.8v4.5h2.7v1.1c-1.4,0.3-2.8,0.3-4.2-0.2
				c-1.1-0.5-2.3-0.8-3.5-0.9v-1.2c0.1-6.7-0.3-13.3-1.2-19.9c-0.9-6.5-1.3-13.2-1.3-19.8c0.9-0.9,1.5-3,1.7-6.5
				C35.7,44.9,36.4,42.9,37.6,42.1z"/>
			<path id="path108" class="st3" d="M51.7,72.7v8c-0.7,0.5-1.4,1.1-1.9,1.8c-0.7,0.8-1.7,1-3.2,0.4c-1.1-2.3-1.6-6.5-1.3-12.5
				c1.2,0.1,1.7,1.5,1.3,4.1s0,3.9,1.2,3.9c0-0.7,0-1.4,0.2-2.1c0-0.7,0.5-1.3,1.2-1.4c0.1,0.7,0.2,1.5,0.2,2.3
				c-0.1,0.6,0.4,1.1,1,1.2c0,0,0,0,0,0c0.1-1.2,0-2.3-0.2-3.5C50,73.3,50.5,72.6,51.7,72.7z"/>
			<path id="path110" class="st12" d="M56.7,80.7v10.2c-0.7-0.1-1.4,0.1-2,0.4c-0.6,0.3-1.2,0.5-1.9,0.6c-1.1-0.3-1.6-1.6-1.3-3.8
				c0.2-1.8,0.3-3.5,0.2-5.3c1.3,1.3,2.3,1.5,3,0.6C55.2,82.5,55.9,81.5,56.7,80.7z"/>
			<path id="path112" class="st8" d="M51.7,82.9c0.1,1.8,0,3.5-0.2,5.3c-0.2,2.2,0.2,3.5,1.3,3.8c-0.7,0.8-1.6,1.4-2.7,1.7
				c-1.2,0.1-2.4,0.3-3.5,0.6V82.9c1.5,0.5,2.5,0.4,3.2-0.4c0.5-0.7,1.1-1.3,1.9-1.8L51.7,82.9z"/>
			<path id="path114" class="st13" d="M20.8,82.3c0.3-0.5,0.4-1.1,0.3-1.7c0.7,0.2,1.2,1.4,1.7,3.8c0.3,1.8,1.5,2.5,3.4,2
				c0.6,0.4,1.1,0.9,1.5,1.5c0.6,0.6,1.5,0.9,2.4,0.8c0.5,0.4,1,0.9,1.3,1.5c0.6,0.6,1.5,0.9,2.4,0.8c0.6,0.1,1.1,0.5,1.2,1.2
				c0.1,0.7,0.2,1.4,0.2,2.1c-1.4,0.5-2.9,0.1-4-0.9c-1-0.9-2.2-1.4-3.5-1.3l-7.2-9.3C20.5,82.7,20.6,82.6,20.8,82.3z"/>
			<path id="path116" class="st12" d="M8.4,42.1c0.7-1-0.1-4.4-2.2-10.1c-2-5.3-1.7-8.7,0.8-10.2c2.2,6.9,4.5,15.8,6.9,26.8
				c1.3,6.1,3.2,15.3,5.7,27.6c0,0.8,0.3,1.6,0.7,2.3c0.5,0.6,0.7,1.5,0.7,2.3c0,0.6-0.1,1.1-0.3,1.7c-0.3,0.5-0.7,0.3-1-0.4
				c0-0.9-0.4-1.3-1.2-1.2C14,61.9,11,50.2,9.6,45.6v-2.1C9.6,42.8,9.1,42.2,8.4,42.1z"/>
			<path id="path118" class="st12" d="M19.6,78.7c0,1.5,1,2.3,2.9,2.3c0.7,0,1.6,0.9,2.9,2.7c1.3,1.9,2.7,3.7,4.4,5.3
				c1.1,1.2,2.6,1.8,4.2,1.7c0.8-0.2,2.2-0.5,4.4-0.9c2.5,0,3.9-0.8,4.4-2.3l9.8,2.3h9.3l-19.4,6.8c-5.7-1.3-9.6-2.5-11.5-3.6
				l-15.2-8.8l-1.2-9.7L17,76C18.7,77.1,19.6,78,19.6,78.7z"/>
			<path id="path120" class="st7" d="M47.5,12.7l1.2,1.2c-0.8,2.6-2.2,3.7-4,3.3C43.9,14.1,44.8,12.6,47.5,12.7z"/>
			<path id="path122" class="st7" d="M50.8,5.6l0.8,0.3c-0.3,1.6-1.3,2.2-3,1.8c-0.2-0.8-0.2-1.7,0-2.6C49.4,5.1,50.1,5.3,50.8,5.6z
				"/>
			<path id="path124" class="st7" d="M60.5,12.7l1.3,0.8c1,1.3,1,2.3-0.2,3c-1.2,0.7-2.4,0.5-3.7-0.8s-1.5-2.2-0.8-2.7
				S58.7,12.4,60.5,12.7z"/>
			<path id="path126" class="st6" d="M68,17.2l0.5-0.3c0.9,0.5,1.1,1.7,0.7,3.6c-1.4,0.3-2.2,0-2.5-1.1S66.9,17.7,68,17.2z"/>
			<path id="path128" class="st6" d="M58.7,24.4h0.5c1,0.3,1.7,1.2,1.7,2.3c0,1-0.4,2-1,2.9c-3.2,0.4-4.7-0.4-4.6-2.4
				C55.4,25.1,56.5,24.2,58.7,24.4z"/>
			<path id="path130" class="st6" d="M50,16.1v0.8c-0.1,1.9-0.2,3.8-0.5,5.6c-1,0.2-2,0.1-3-0.1c-0.7-1.3-0.6-2.8,0.2-4.1
				C47.2,16.9,48.5,16,50,16.1z"/>
			<path id="path132" class="st6" d="M28.4,15.7l1.3,0.8c0.1-0.3,0.4-0.6,0.7-0.8c0.2-0.2,0.7-0.2,1.3,0c0.2,1,0.2,2,0,3
				c-1.2,0.2-2.5,0.2-3.7,0C27.8,17.7,27.9,16.6,28.4,15.7z"/>
			<path id="path134" class="st7" d="M48.3,2.9V1.8C49,1.7,49.6,2,50,2.6c0.2,0.6,0.2,1.4,0,2c-0.5,1.1-1.8,1.8-3.9,1.9
				c-2.8,0.1-3.8-0.8-2.9-2.6C44.2,2.2,45.9,1.9,48.3,2.9z"/>
			<path id="path136" class="st7" d="M26.7,10.6h0.2c1.1,0.4,1.7,1.6,1.3,2.7c-0.2,1.2-1.2,2.1-2.4,2.1c-2.6,0.1-3.4-1-2.5-3.3
				C24.2,9.8,25.3,9.2,26.7,10.6z"/>
			<path id="path138" class="st7" d="M67.8,9.7l0.9-0.6c1.1-0.1,1.6,0.4,1.3,1.5c-0.2,0.9-0.9,1.7-1.9,1.8c-1,0.2-1.9-0.4-2.2-1.3
				c0-0.1,0-0.1,0-0.2C65.9,9.8,66.5,9.4,67.8,9.7z"/>
			<path id="path140" class="st7" d="M53,22.6h-1.2c0.9,0.7,1.1,1.8,0.5,3.3s-1.6,2-2.9,1.1c-0.7-0.7-1-1.6-1-2.5
				c-0.2-1,0-2,0.7-2.7c0.7-0.6,1.7-0.8,2.6-0.6C52.7,21.2,53.1,21.7,53,22.6z"/>
		</g>
	</g>
</g>
<g id="Layer_2_1_">
	<g id="g14474">
		<g id="g16252">
			<g id="g16267">
				<path id="path14476" class="st14" d="M64.3,2.8c1.6-0.4,3.1,0.6,4.2,1.6c2.7,2.6,5.3,5.4,7.7,8.3c4.6,5.4,9.2,10.7,13.6,16.2
					c0.5,0.6,0.9,1.4,1.6,1.8c0.4,0.3,0.3,1,0.2,1.5c-0.4,1.9-1,3.8-1.6,5.7c-0.4,1.5-0.9,3-1.5,4.5c-0.7,1.3-1.9,2-2.9,2.8
					c-1.1,0.9-2.4,1.6-3.7,2.1c-2.8,1-5.7,1.7-8.5,2.5c-1.2,0.4-2.4,0.6-3.6,0.5c-1.2-0.2-1.5-1.7-1.8-2.8c-0.2-0.7-0.5-1.7-1.3-1.6
					c-1.1,0.6-2,1.6-2.7,2.6c-1.4,1.7-2.5,3.9-4.4,5c-1.8,0.8-3.7,1.5-5.6,2c-2.3,0.8-4.7,1.4-7.1,1.9c-1.2,0.2-2.5-0.2-3.4-1
					c-0.7-0.7-1.6-1.2-2-2.1c-4.5-7.3-9.7-13.9-13.8-21.4c-1.3-2.4-2.5-4.8-3.7-7.3c-0.5-1.2-1.2-2.3-2-3.3c-0.4-0.5-1-0.7-1.6-0.4
					c-1.2,0.6-1.8,2-2.5,3.1c-0.3,0.6-1,0.9-1.7,0.6c-1-0.5-1.7-1.6-1.8-2.8c0-1.6,0.6-3.2,1.6-4.5c1.1-1.5,2.7-3,4.5-3
					c1.6,0,2.9,1.1,4,2.2c2.9,2.8,5.5,5.9,8.2,8.9c3.4,3.9,6.7,7.9,10,11.9c1.3,1.4,2.5,2.9,3.6,4.4c4.2-1.5,8.6-2.5,12.9-3.9
					c7.1-2.1,14.1-4.2,21.2-6.1c-2.3-3.6-4.8-7.1-6.9-10.8c-1.8-3.1-3.4-6.4-5.1-9.6c-0.6-1.3-1.5-2.5-2.5-3.6c-0.4-0.4-1-0.4-1.4,0
					c0,0,0,0,0,0c-1,1-1.3,2.7-2.5,3.4c-1,0.7-2.1-0.1-2.5-1.1c-0.3-1.4-0.2-2.8,0.4-4.1C60.5,5.4,62.1,3.3,64.3,2.8 M64.3,3.4
					c-1.9,0.4-3.3,2.2-4.1,4.1c-0.6,1.2-0.8,2.6-0.5,3.9c0.3,0.8,1.2,1.4,1.9,0.9c1.2-0.9,1.4-2.9,2.8-3.7c0.8-0.5,1.7,0.2,2.2,0.9
					c1.5,2,2.8,4.2,3.9,6.6c3,5.9,6.5,11.6,10.4,17c3.2-0.8,6.4-1.7,9.6-2.4c-4.6-5.8-9.4-11.4-14.2-17c-2.5-3-5.2-5.9-8-8.7
					C67.1,4,65.8,3,64.3,3.4 M90.6,31.1c-4,0.8-7.9,1.9-11.9,2.9c-9.4,2.6-18.8,5.6-28.3,8.2c-1.4,0.4-2.7,0.8-4,1.4
					c-1,3.4-2,6.7-2.9,10.1c-0.1,0.7-0.4,1.5-0.1,2.1c0.9,0.9,2.3,1.3,3.6,1.1c2.9-0.6,5.7-1.5,8.6-2.3c1.8-0.6,3.8-1.1,5.3-2.7
					c1.6-1.8,2.8-4.1,4.6-5.7c0.5-0.5,1.3-1,2-0.5c1.1,1,1,2.8,1.9,3.9c0.8,0.6,1.9,0.2,2.8,0c2.6-0.7,5.2-1.4,7.7-2.2
					c1.8-0.4,3.6-1.2,5.1-2.3c1.3-1,2.9-1.9,3.5-3.7c1-2.9,1.9-5.9,2.7-8.9C91.3,32.1,91.6,30.9,90.6,31.1 M20.1,16.3
					c-1.8,0.3-3.2,1.9-4.3,3.5c-0.7,1.2-1.4,2.7-0.8,4c0.3,0.8,0.9,1.7,1.8,1.7c0.7-0.1,0.9-0.9,1.3-1.4c0.5-1.2,1.4-2.1,2.6-2.6
					c0.8-0.2,1.6,0.4,2,1.1c1.1,1.7,2.1,3.5,2.9,5.4c2.1,4.3,4.5,8.5,7.2,12.5c2.7,4,5.4,7.9,8,12c0.6,1.1,1.3,2.1,2.1,2.9
					c0.1-1.2,0.4-2.3,0.7-3.5c0.8-2.7,1.5-5.4,2.4-8.1c-0.3-0.6-0.6-1.2-1.1-1.7c-4.5-5.4-9-10.7-13.6-16c-2.3-2.8-4.8-5.5-7.4-8
					C22.9,17.2,21.6,16.1,20.1,16.3z"/>
				<path id="path14482" class="st14" d="M85,35c0.4-0.1,0.9,0.2,1,0.6c0.1,0.6,0,1.3-0.2,1.9c-0.3,1.6-1,3.2-2,4.4
					c-1.3,1.1-2.8,1.9-4.4,2.2c-1.9,0.6-3.7,1.1-5.6,1.5c-0.7,0.1-1.7,0.2-1.9-0.7c0-1.1,0.3-2.2,0.7-3.2c0.4-1.4,1-2.9,2.2-3.7
					c1.7-0.8,3.4-1.5,5.3-1.9C81.6,35.6,83.3,35.2,85,35 M84.4,35.5c-2,0.4-4,1-5.9,1.6c-1.3,0.3-2.6,0.8-3.8,1.5
					c-1,0.8-1.4,2.2-1.8,3.4c-0.3,0.9-0.5,1.8-0.5,2.8c0.2,0.5,0.8,0.3,1.2,0.3c1.7-0.3,3.4-0.8,5-1.3c1.7-0.4,3.2-1.1,4.6-2.1
					c1.4-1.2,1.8-3.2,2.3-5c0-0.4,0.3-0.9,0-1.2C85.1,35.4,84.7,35.4,84.4,35.5L84.4,35.5z"/>
				<path id="path14484" class="st15" d="M84.4,35.5c0.4-0.1,0.7-0.1,1.1,0c0.3,0.3,0.1,0.8,0,1.2c-0.5,1.8-0.9,3.8-2.3,5
					c-1.4,1-3,1.7-4.6,2.1c-1.6,0.5-3.3,0.9-5,1.3c-0.4,0-1,0.2-1.2-0.3c0-0.9,0.2-1.9,0.6-2.7c0.4-1.2,0.8-2.6,1.8-3.4
					c1.2-0.7,2.4-1.3,3.8-1.6C80.4,36.6,82.4,35.9,84.4,35.5z"/>
				<g id="g16237">
					<path id="path14478" class="st16" d="M64.3,3.3c1.5-0.4,2.8,0.7,4,1.6c2.8,2.7,5.5,5.6,8,8.7c4.8,5.6,9.6,11.2,14.2,17
						c-3.2,0.7-6.4,1.6-9.6,2.4c-3.9-5.4-7.4-11.1-10.4-17c-1.1-2.3-2.3-4.5-3.8-6.6c-0.5-0.6-1.4-1.3-2.2-0.9
						c-1.4,0.8-1.5,2.8-2.8,3.7c-0.8,0.5-1.6-0.1-1.9-0.9c-0.3-1.3-0.1-2.7,0.5-3.9C61,5.5,62.5,3.7,64.3,3.3z"/>
					<path id="path14480" class="st17" d="M90.7,31.1c0.9-0.1,0.6,1,0.5,1.6c-0.8,3-1.7,6-2.7,8.9c-0.6,1.8-2.2,2.6-3.5,3.7
						c-1.5,1.1-3.3,1.9-5.1,2.3c-2.6,0.8-5.1,1.5-7.7,2.2c-0.9,0.2-2,0.6-2.8,0c-0.9-1.1-0.8-3-1.9-3.9c-0.6-0.5-1.4,0-2,0.5
						c-1.8,1.6-3,3.9-4.6,5.7c-1.4,1.6-3.5,2.1-5.3,2.7c-2.9,0.8-5.7,1.8-8.6,2.3c-1.3,0.3-2.7-0.1-3.6-1.1
						c-0.4-0.6-0.1-1.4,0.1-2.1c0.9-3.4,1.9-6.8,2.9-10.2c1.3-0.6,2.6-1.1,4-1.4c9.5-2.7,18.9-5.7,28.4-8.2
						C82.8,33,86.7,31.8,90.7,31.1 M85,35c-1.7,0.2-3.4,0.6-5,1.2c-1.8,0.5-3.6,1.1-5.2,2c-1.3,0.7-1.8,2.3-2.2,3.7
						c-0.4,1-0.6,2.1-0.7,3.2c0.2,0.9,1.2,0.9,1.9,0.7c1.9-0.4,3.8-0.9,5.6-1.5c1.6-0.4,3.1-1.2,4.3-2.3c1-1.3,1.7-2.8,2-4.4
						c0.2-0.6,0.3-1.2,0.2-1.9C85.8,35.2,85.4,34.9,85,35 M61.2,42c-1.7,0.3-3.5,0.7-5.1,1.3c-1.8,0.5-3.6,1.1-5.2,2
						c-1.6,1-2,3.2-2.6,5c-0.2,0.8-0.6,1.8,0,2.4c0.8,0.2,1.6,0.2,2.3,0c2.7-0.5,5.4-1.5,7.8-2.8c1-0.4,1.9-1.2,2.4-2.1
						c0.7-1.5,1.2-3,1.5-4.7c0-0.4,0.2-1-0.3-1.1C61.8,41.9,61.5,41.9,61.2,42L61.2,42z"/>
					<path id="path14486" class="st16" d="M20.1,16.3c1.5-0.3,2.8,0.9,3.9,1.8c2.6,2.5,5,5.2,7.4,7.9c4.6,5.3,9.1,10.7,13.6,16
						c0.5,0.5,0.8,1.1,1.1,1.7c-0.8,2.7-1.6,5.4-2.4,8.1c-0.4,1.1-0.6,2.3-0.7,3.5c-0.8-0.9-1.6-1.9-2.1-2.9c-2.6-4-5.3-8-8-12
						c-2.7-4-5.1-8.1-7.2-12.4c-0.8-1.9-1.8-3.7-2.9-5.4c-0.5-0.7-1.2-1.3-2-1.1c-1.2,0.5-2.1,1.4-2.6,2.6c-0.3,0.5-0.6,1.3-1.3,1.4
						c-0.9,0-1.5-0.9-1.8-1.7c-0.5-1.3,0.1-2.8,0.8-4C16.9,18.2,18.3,16.6,20.1,16.3L20.1,16.3z"/>
				</g>
				<path id="path14488" class="st14" d="M61.3,42c0.3-0.1,0.5-0.1,0.8,0c0.4,0.2,0.3,0.7,0.3,1.1c-0.3,1.5-0.8,3-1.4,4.5
					c-0.5,1-1.4,1.7-2.4,2.1c-2.5,1.3-5.1,2.2-7.8,2.8c-0.8,0.2-1.6,0.2-2.3,0c-0.6-0.6-0.2-1.6,0-2.4c0.6-1.8,0.9-4,2.6-5
					c1.7-0.9,3.4-1.5,5.2-2c1.7-0.5,3.4-1,5.1-1.3 M58,43.2c-2.2,0.6-4.4,1.3-6.5,2.2c-1.8,0.9-2.1,3.3-2.7,5.1
					c-0.2,0.6-0.5,1.8,0.4,1.6c3.1-0.4,6-1.3,8.8-2.7c1-0.6,2.2-1.1,2.7-2.3c0.7-1.5,1.2-3.1,1.3-4.7C60.6,42.5,59.2,42.7,58,43.2z"
					/>
				<path id="path14490" class="st18" d="M58,43.2c1.3-0.5,2.6-0.7,4-0.7c-0.2,1.6-0.7,3.2-1.3,4.7c-0.5,1.2-1.7,1.8-2.7,2.3
					c-2.8,1.4-5.7,2.3-8.8,2.7c-0.9,0.1-0.5-1.1-0.4-1.6c0.6-1.8,0.9-4.2,2.7-5.1C53.5,44.5,55.7,43.8,58,43.2z"/>
				<g id="g16242">
					<path id="path16244" class="st16" d="M64.3,3.3c1.5-0.4,2.8,0.7,4,1.6c2.8,2.7,5.5,5.6,8,8.7c4.8,5.6,9.6,11.2,14.2,17
						c-3.2,0.7-6.4,1.6-9.6,2.4c-3.9-5.4-7.4-11.1-10.4-17c-1.1-2.3-2.3-4.5-3.8-6.6c-0.5-0.6-1.4-1.3-2.2-0.9
						c-1.4,0.8-1.5,2.8-2.8,3.7c-0.8,0.5-1.6-0.1-1.9-0.9c-0.3-1.3-0.1-2.7,0.5-3.9C61,5.5,62.5,3.7,64.3,3.3z"/>
					<path id="path16246" class="st17" d="M90.7,31.1c0.9-0.1,0.6,1,0.5,1.6c-0.8,3-1.7,6-2.7,8.9c-0.6,1.8-2.2,2.6-3.5,3.7
						c-1.5,1.1-3.3,1.9-5.1,2.3c-2.6,0.8-5.1,1.5-7.7,2.2c-0.9,0.2-2,0.6-2.8,0c-0.9-1.1-0.8-3-1.9-3.9c-0.6-0.5-1.4,0-2,0.5
						c-1.8,1.6-3,3.9-4.6,5.7c-1.4,1.6-3.5,2.1-5.3,2.7c-2.9,0.8-5.7,1.8-8.6,2.3c-1.3,0.3-2.7-0.1-3.6-1.1
						c-0.4-0.6-0.1-1.4,0.1-2.1c0.9-3.4,1.9-6.8,2.9-10.2c1.3-0.6,2.6-1.1,4-1.4c9.5-2.7,18.9-5.7,28.4-8.2
						C82.8,33,86.7,31.8,90.7,31.1 M85,35c-1.7,0.2-3.4,0.6-5,1.2c-1.8,0.5-3.6,1.1-5.2,2c-1.3,0.7-1.8,2.3-2.2,3.7
						c-0.4,1-0.6,2.1-0.7,3.2c0.2,0.9,1.2,0.9,1.9,0.7c1.9-0.4,3.8-0.9,5.6-1.5c1.6-0.4,3.1-1.2,4.3-2.3c1-1.3,1.7-2.8,2-4.4
						c0.2-0.6,0.3-1.2,0.2-1.9C85.8,35.2,85.4,34.9,85,35 M61.2,42c-1.7,0.3-3.5,0.7-5.1,1.3c-1.8,0.5-3.6,1.1-5.2,2
						c-1.6,1-2,3.2-2.6,5c-0.2,0.8-0.6,1.8,0,2.4c0.8,0.2,1.6,0.2,2.3,0c2.7-0.5,5.4-1.5,7.8-2.8c1-0.4,1.9-1.2,2.4-2.1
						c0.7-1.5,1.2-3,1.5-4.7c0-0.4,0.2-1-0.3-1.1C61.8,41.9,61.5,41.9,61.2,42L61.2,42z"/>
					<path id="path16248" class="st16" d="M20.1,16.3c1.5-0.3,2.8,0.9,3.9,1.8c2.6,2.5,5,5.2,7.4,7.9c4.6,5.3,9.1,10.7,13.6,16
						c0.5,0.5,0.8,1.1,1.1,1.7c-0.8,2.7-1.6,5.4-2.4,8.1c-0.4,1.1-0.6,2.3-0.7,3.5c-0.8-0.9-1.6-1.9-2.1-2.9c-2.6-4-5.3-8-8-12
						c-2.7-4-5.1-8.1-7.2-12.4c-0.8-1.9-1.8-3.7-2.9-5.4c-0.5-0.7-1.2-1.3-2-1.1c-1.2,0.5-2.1,1.4-2.6,2.6c-0.3,0.5-0.6,1.3-1.3,1.4
						c-0.9,0-1.5-0.9-1.8-1.7c-0.5-1.3,0.1-2.8,0.8-4C16.9,18.2,18.3,16.6,20.1,16.3L20.1,16.3z"/>
				</g>
			</g>
		</g>
	</g>
</g>
<g id="Layer_3">
	<path class="st19" d="M33.1,66.4c0.6-1.6,1.9-2.9,3.5-3.5c4.5-2,9.1-3.6,13.9-5c4.3-0.7,8.6-1.1,12.9-1.2c1.3,0.2,2.6,0.1,3.8-0.3
		c3.2-0.9,6.4-1.5,9.7-1.8c1.9-0.2,3.9-0.2,5.7,0.3c1.1,0.4,2.1,1,3,1.8c0.4,0.5,0.8,1.2,0.6,1.6c-0.3,0.4-0.4,0.9-0.5,1.4
		c-0.2,0.7-1.1,5-1.7,7s-2.3,7.5-4.1,9.6c-3.3,3.9-7.9,6.6-12.9,7.5c-7.4,1.4-15.9-0.9-18.7-2.4s-9.4-5.9-11.2-7.7
		c-1.4-1.5-2.6-3.1-3.6-4.8C33,68.1,32.9,67.2,33.1,66.4L33.1,66.4z"/>
	<path class="st20" d="M35,66.3c0,0,5.6-1.3,8-1.7s8.9-2.5,10.9-2s8.5,0.5,10.8,0.4c2.3-0.1,7.3-2.1,10-2.9s4.4-1.4,6.6-2.1
		s2.8-1.9,1.7-0.1s-2.5,1.7-2.3,4.3c0.2,2.7,1.6,3.1-1.9,5.9s-7.3,6.8-13.8,8s-12.3-0.6-14.3-0.7c-2.5,0.1-5-0.3-7.4-1.1
		c-2.7-0.9-5.2-2.4-7.2-4.4C33.9,67.6,34.5,66.8,35,66.3z"/>
	<path class="st21" d="M36.2,65.8c0.3-0.1,9.9-1.3,12.2-2.2c2.5-0.9,5.2-1.2,7.8-0.7c2.5,0.6,5.1,0.7,7.7,0.3c2.5-0.5,5-1.2,7.4-2
		c2.8-1,4.3-1.3,6.8-2.1c2.1-0.7,1.8-0.4,2.9-0.9c1.3-0.6,2.3-0.5,0.9,0.1s-0.5,1-2.9,3.4c-2.1,2.2-4.7,3.9-7.5,5
		c-3,1.4-6.1,2.4-9.4,2.8c-5.2,0.5-10.3,0.6-15.5,0.2c-5.3-0.3-4.6-0.4-6.7-1.4C38.4,67.8,37.2,66.9,36.2,65.8L36.2,65.8z"/>
	<polygon class="st22" points="64.6,77.9 64,78.5 64.3,79.1 65,79.1 64.9,78.6 65.2,78.1 	"/>
	<path class="st22" d="M65.7,78c0,0-0.4,0.9,0,1.2c0.6-0.2,1.3-0.5,1.3-0.5l-0.1-0.3c0,0-0.1,0.1-0.3-0.2s-0.1-0.3-0.1-0.3L65.7,78z
		"/>
	<path class="st22" d="M67.1,77.7c0,0-0.1,0.5,0,0.5s0.4,0.2,0.6,0.2s0.3-0.3,0.6-0.2c0.3,0.1,0.7,0.1,1,0c0.2-0.1,0.6,0,0.8-0.3
		c0.2-0.2,0.5-0.4,0.8-0.5c0.2-0.1,0.4-0.1,0.7-0.2l-0.4-1c-0.3,0-0.6,0.2-0.9,0.3c-0.3,0.2-0.9,0.2-1.2,0.4s-0.6,0.1-0.7,0.3
		c-0.1,0.1-0.2,0.3-0.3,0.5l-0.2-0.3L67.1,77.7L67.1,77.7z"/>
	<polygon class="st22" points="72,75.8 72.5,76.6 72.6,76.3 72.4,75.7 	"/>
	<polygon class="st22" points="63.6,78.3 63.5,78.9 62.9,78.6 63.2,78.2 	"/>
	<path class="st22" d="M57.5,63.7c-0.7,0.9-1.1,1.9-1.4,3c-0.1,1-0.1,2.1-0.1,3.1c0.1,0.9,0.6,1.6,1.2,2.2c0.5,0.6,1.3,0.8,3.1,0.6
		c0.9,0,1.8-0.2,2.7-0.5c0.8-0.3,1.1-0.2,1.4-0.5c0.3-0.5,0.5-1,0.4-1.6c-0.1-1.1-0.3-2.3-0.6-3.4c-0.3-0.8-0.7-1.6-1.2-2.3
		l-0.8-1.1c-1.1-0.2-2.1-0.2-3.2-0.2C58.5,63.3,58,63.5,57.5,63.7z"/>
	<path class="st22" d="M64.9,71c0,0,0,0.7,0.5,0.7s1.1-0.2,1.7-0.2c0.8,0,1.7-0.1,2.5-0.3c0.6-0.1,1.2-0.4,1.7-0.6
		c0.5-0.8,0.8-1.8,0.9-2.8c-0.1-0.8-0.8-3.5-1-4l-0.3-0.9c-0.1-0.2-0.2-0.4-0.4-0.5c-0.3-0.1-0.3-0.2-0.3-0.2
		c-0.5-0.2-1.1-0.2-1.6,0c-0.8,0.3-1.6,0.7-2.2,1.2c0,0-0.7,1.3-1.1,2.3c-0.2,0.6-0.4,1.1-0.5,1.7c-0.1,0.8-0.1,1.5,0,2.3
		C64.9,70.1,64.9,71,64.9,71z"/>
	<path class="st22" d="M72.2,68.9c0,0,0.7,0.8,1,0.8c0.4,0.1,0.8,0.1,1.1,0c0.5-0.1,0.9-0.3,1.3-0.7c0.3-0.3,0.5-0.7,0.7-1.1
		c0.1-0.7,0.1-1.4,0.1-2.1c-0.1-0.8-0.3-1.6-0.6-2.3c-0.2-0.4-0.3-0.8-0.3-1.2c-0.1-0.4-0.2-0.7-0.4-1.1c-0.1-0.3-0.2-0.4-0.5-0.5
		s-0.6-0.3-0.7-0.1c-0.4,0.5-0.7,1-1,1.6c-0.1,0.4-0.3,0.8-0.5,1.2c-0.2,0.4-0.3,0.5-0.5,0.9c-0.1,0.2-0.3,0.4-0.4,0.5"/>
	<path class="st22" d="M76.6,67.2c0,0,0,0.2,0.3,0.3c0.3,0.1,0.7,0.1,1,0c0.3-0.1,0.5-0.1,0.7-0.3c0.2-0.1,0.3-0.5,0.4-0.9
		c0.1-0.9,0.2-1.8,0.1-2.7c-0.1-0.5-0.2-1-0.3-1.6c-0.2-0.5-0.3-1-0.4-1.5c-0.1-0.8,0.1-1.3-0.2-1.2c-0.5,0.2-0.8,0.5-1,1
		c-0.1,0.4-0.3,0.7-0.6,1.1c-0.4,0.7-0.8,1.2-0.8,1.2c-0.2,0.8-0.2,1.7,0,2.5C76,65.9,76.3,66.6,76.6,67.2z"/>
	<path class="st22" d="M56.1,71c-0.1,0.4-0.4,0.8-0.7,1c-0.5,0.4-0.6,0.3-1.1,0.4c-0.6,0.1-1.3,0.2-1.9,0.1c-0.7-0.1-1.4-0.3-2-0.7
		c-0.5-0.6-0.7-1.4-0.8-2.2c0-0.9,0-1.8,0.2-2.7c0.1-0.5,0.2-1,0.4-1.5c0.2-0.6,0.6-1.2,1-1.6c0.1-0.2,0.4-0.2,0.6-0.2
		c0.5,0,1,0.1,1.4,0.3c0.5,0.4,0.9,0.8,1.2,1.3c0.2,0.4,0.4,0.8,0.8,1.1c0.3,0.3,0.6,0.6,0.8,1"/>
	<path class="st22" d="M44.3,64.7c0,0.6,0,1.2-0.2,1.8c-0.2,0.9-0.3,1.1-0.4,1.9s-0.2,0.9-0.1,1.4c0.2,0.5,0.4,1,0.8,1.3
		c0.4,0.4,0.7,0.8,1.2,1.1c0.5,0.3,0.5,0.5,1.1,0.3c0.5-0.2,1-0.3,1.5-0.5c0.6-0.3,0.4-0.2,0.8-0.5s0.6-0.7,0.6-0.7s0.7-1.1,0.5-1.8
		s-0.7-1.8-0.7-1.8c-0.2-0.1-0.4-0.3-0.6-0.5c-0.3-0.3-0.5-0.6-1-1.1c-0.2-0.3-0.4-0.7-0.3-1.1c0,0,0.1-0.6-1-0.4
		C45.3,64.3,44.3,64.7,44.3,64.7z"/>
	<path class="st22" d="M40.4,65.2c-0.1,0.3-0.2,0.7-0.2,1c0,0.6-0.1,1.1-0.3,1.6c-0.3,0.7-0.5,0.9-0.5,1.3c0,0.5,0.1,1,0.3,1.4
		c0.2,0.4,0.5,0.8,0.9,1.1c0.5,0.3,0.7,0.5,1.1,0.4s0.8-0.1,1-0.4s0.2-0.4,0.6-0.4s0.4-0.1,0.6-0.4c0.4-0.7,0.6-1.5,0.5-2.4
		c-0.2-1.1-0.4-2.1-0.7-3.2C43.5,64.5,40.4,65.2,40.4,65.2z"/>
	<path class="st22" d="M39.2,70c0,0-0.4,0-0.6,0c-0.3,0.1-0.5,0.1-0.8,0.2c-0.4,0.1-0.5,0.3-0.9,0.3s-0.3-0.3-0.7-0.6
		s-0.4-0.5-0.6-1c-0.2-0.5-0.2-1,0-1.5l0.3-1l3.1-1c0.2,0.2,0,0,0.2,0.5c0.2,0.4,0.5,0.7,0.8,1c0,0,0.5,1.4,0.2,2
		C39.8,69.3,39.5,69.7,39.2,70z"/>
	<path class="st22" d="M80.3,62.6c0.2,0,0.4-0.2,0.4-0.5c0.1-0.6,0-1.1-0.1-1.7c0-0.5-0.1-1-0.2-1.5c0,0,0-0.8-0.5-0.3
		s-1,0.3-0.8,1.3s0.3,2.2,0.6,2.4C79.9,62.6,80.1,62.6,80.3,62.6"/>
	<path class="st22" d="M79.4,65.6c0,0,0.5-0.2,0.8-1.2c0.2-0.5,0.2-1.1,0.2-1.6c0.1-0.8-0.3-0.9-0.7-1.8c-0.2-0.6-0.3-1.2-0.4-1.8
		c0,0-0.2-0.7-0.6-0.1s-0.7,0.8-0.5,1.8s-0.1,3.1,0.4,3.7C79.1,65.2,79.4,65.6,79.4,65.6z"/>
	<path class="st22" d="M64.4,75.9c0,0-0.1-0.7-0.1-1.4s-0.1-0.7-0.7-0.8c-0.9,0-1.9,0.1-2.8,0.3c-1.3,0.2-1.5,0.3-1.5,0.6
		s0,1.8,0,1.8c0.9,0.1,1.8,0.1,2.7,0.1C62.8,76.3,63.6,76.1,64.4,75.9z"/>
	<path class="st22" d="M68.7,74.3c-0.1-0.5-0.2-0.9-0.3-1.4c-0.1-0.3-0.4-0.1-0.8,0.1s-1.2,0.2-2.2,0.5s-0.9,0.3-0.9,0.3
		s-0.6,1.8,0,2.1c0.7,0.2,1.5,0.1,2.2-0.2c0.8-0.2,1.3-0.3,1.7-0.6C68.6,74.8,68.7,74.6,68.7,74.3z"/>
	<path class="st22" d="M71.3,72.9c-0.2-0.4-0.2-1.2-0.8-1.1c-0.6,0.2-1.2,0.4-1.7,0.7c0,0-0.5-0.3-0.4,0.4s0.2,2.2,0.4,2.1
		s0.7-0.3,1.4-0.6s1.2-0.2,1.3-0.7C71.5,73.4,71.4,73.2,71.3,72.9z"/>
	<path class="st22" d="M72,71.9c0,0,0-1.2,0.4-1.4c0.4-0.1,0.9-0.2,1.3-0.2c0.4-0.1,0.8-0.1,1.2,0.2c0.6,0.4,0.3,1-0.7,1.4
		s-1.3,1.2-1.8,0.9C72.2,72.6,72,72.2,72,71.9z"/>
	<path class="st22" d="M54,75.7c0,0-0.2-0.3,0.5-0.6c0.7-0.3,1.4-0.5,2.1-0.6c0.8,0,1.5-0.3,1.8-0.2s0.7,0.1,0.7,0.1
		s0.5,0.4,0.6,0.6s0.3,1.2-0.3,1.3S54.9,75.6,54,75.7z"/>
	<path class="st22" d="M49.4,74.9c0,0,0.7-0.7,1.2-0.7c0.4,0,0.8,0,1.2,0.2c0.5,0.1,0.9,0,1.3,0.4c0.2,0.2,0.4,0.4,0.5,0.7
		c0,0,0,0.3-1.5,0.1s-2.2-0.2-2.6-0.2S49.4,74.9,49.4,74.9z"/>
</g>
</svg>
